<svg xmlns="http://www.w3.org/2000/svg" viewBox="115 108 1695 583"><defs><linearGradient id="ig" x1="0" y1="0" x2="0.3" y2="1"><stop offset="0" stop-color="#F4D877"/><stop offset="0.5" stop-color="#E7C365"/><stop offset="1" stop-color="#C08F2B"/></linearGradient></defs><path fill="#EDF1E6" fill-rule="evenodd" d="M 534.387 121.934 C 515.159 124.995, 507.648 131.184, 519.250 134.410 C 544.913 141.545, 557.492 164.939, 563.121 216 C 564.728 230.574, 565.604 513.929, 564.078 525.393 C 562.764 535.269, 558.680 544.124, 553.030 549.352 C 545.849 555.996, 547.957 557.026, 569.266 557.284 C 592.538 557.566, 599.094 554.252, 604.342 539.558 C 605.072 537.514, 605.611 513.118, 605.967 466 C 606.577 385.289, 605.884 391.257, 616.238 377.515 C 636.498 350.624, 675.353 347.379, 691.485 371.231 C 702.542 387.580, 704.478 416.338, 698.541 476 C 695.401 507.551, 695.264 520.408, 697.976 529.187 C 704.574 550.547, 722.135 560.024, 749.727 557.114 C 764.336 555.573, 765.791 553.882, 756.916 548.757 C 747.270 543.187, 740.824 532.861, 739.010 520.070 C 738.032 513.175, 738.152 511.225, 742.583 462 C 748.349 397.958, 742.093 364.909, 720.463 345.141 C 693.434 320.437, 643.910 326.911, 613.527 359.118 C 609.957 362.903, 606.838 366, 606.597 366 C 606.357 366, 605.964 333.488, 605.725 293.750 C 605.450 248.080, 604.863 217.821, 604.127 211.500 C 596.440 145.428, 573.322 115.738, 534.387 121.934 M 1483.273 202.916 C 1481.183 206.577, 1478.308 208.268, 1470.250 210.579 C 1467.325 211.417, 1469.190 214.843, 1474.487 218.360 C 1477.504 220.363, 1481.164 223.802, 1482.620 226.001 C 1486.021 231.142, 1486.942 231.042, 1492.020 224.976 C 1494.334 222.212, 1498.201 218.794, 1500.614 217.381 C 1506.677 213.827, 1506.438 211.629, 1499.750 209.452 C 1493.607 207.452, 1491.628 205.930, 1489.970 201.928 C 1488.309 197.918, 1485.926 198.269, 1483.273 202.916 M 430.785 330.487 C 359.466 342.110, 319.744 406.662, 338.475 480.502 C 356.965 553.391, 437.836 583.995, 495.759 540.023 C 509.872 529.309, 528.955 502.555, 525.178 498.778 C 523.850 497.450, 523.719 497.540, 511.341 508.345 C 463.672 549.956, 401.447 533.411, 382.172 474 C 351.603 379.774, 445.819 311.912, 511.635 380.751 C 516.346 385.678, 520.240 388.970, 520.885 388.571 C 521.652 388.097, 522 380.734, 522 364.964 C 522 337.921, 523.554 340.724, 506 336.112 C 481.097 329.568, 450.478 327.278, 430.785 330.487 M 222.500 332.699 C 180.185 336.539, 153.500 359.107, 153.500 391.055 C 153.500 409.865, 160.317 421.202, 178.405 432.472 C 185.350 436.799, 190.860 439.280, 221.700 451.971 C 265.167 469.858, 279.236 488.796, 267.209 513.228 C 241.768 564.906, 128.156 533.186, 142.439 478.393 C 146.021 464.648, 145.522 463.039, 139.618 469.315 C 123.555 486.391, 124.453 515.127, 141.718 536.500 C 155.197 553.187, 173.282 563.251, 228 584.512 C 291.199 609.069, 311.503 633.486, 298.949 669.831 C 294.312 683.255, 304.621 676.477, 312.356 661.016 C 330.674 624.400, 312.575 588.950, 263.520 565.361 C 250.996 559.339, 250.640 558.832, 257.696 557.055 C 293.331 548.082, 319.491 513.483, 315.132 481.090 C 310.898 449.631, 293.508 434.749, 238.500 415.509 C 198.195 401.411, 188.585 392.766, 194.520 375.944 C 204.607 347.352, 261.989 347.579, 291.074 376.326 C 300.462 385.605, 300.451 385.625, 300.768 358.875 C 301.077 332.912, 300.846 332.078, 294.456 336.027 C 289.727 338.950, 281.867 338.987, 268 336.152 C 250.788 332.634, 235.776 331.495, 222.500 332.699 M 1252.038 333.752 C 1245.438 337.084, 1242.063 348.329, 1242.020 367.128 C 1241.993 378.943, 1243.402 380.078, 1248.885 372.656 C 1258.457 359.698, 1258.770 359.630, 1310.391 359.221 C 1336.737 359.012, 1353.649 359.249, 1354.235 359.835 C 1354.840 360.440, 1346.441 372.261, 1331.280 392.144 C 1248.148 501.171, 1218.848 541.536, 1209.642 559.717 C 1204.630 569.614, 1207.289 570.726, 1217.086 562.832 C 1242.574 542.297, 1265.926 533.558, 1295 533.676 C 1331.953 533.826, 1357.160 545.318, 1419.305 590.348 C 1466.155 624.296, 1498.575 638.516, 1539.211 642.942 C 1584.538 647.880, 1633.671 633.467, 1662.686 606.722 C 1671.510 598.588, 1668.836 598.299, 1651.058 605.464 C 1617.431 619.016, 1581.401 623.192, 1552.279 616.911 C 1518.731 609.676, 1496.088 597.581, 1443.500 558.807 C 1388.772 518.456, 1356.775 505.576, 1311.313 505.597 C 1298.155 505.603, 1292.319 505.275, 1292.740 504.553 C 1293.329 503.544, 1298.223 497.172, 1335.402 449 C 1356.780 421.302, 1379.316 392.535, 1394.696 373.313 C 1401.404 364.930, 1407.366 357.185, 1407.946 356.101 C 1409.434 353.320, 1409.316 334.716, 1407.800 333.200 C 1405.597 330.997, 1256.446 331.526, 1252.038 333.752 M 1461.750 332.689 C 1459.409 333.301, 1459.501 337.239, 1461.908 339.416 C 1468.594 345.468, 1468.469 343.836, 1468.812 429.500 C 1469.121 506.910, 1469.107 507.570, 1466.926 516.713 C 1464.729 525.927, 1464.729 525.927, 1467.397 531.379 C 1473.380 543.607, 1488.455 553.488, 1505.104 556.094 C 1513.815 557.458, 1531.971 556.664, 1533.079 554.872 C 1534.115 553.196, 1533.144 551.181, 1530.969 550.490 C 1524.153 548.327, 1513.300 532.581, 1511.005 521.526 C 1508.691 510.379, 1510.165 345.225, 1512.626 339.904 C 1516.334 331.887, 1516.633 331.982, 1488.200 332.116 C 1474.615 332.180, 1462.713 332.438, 1461.750 332.689 M 1658.500 333.674 C 1597.950 341.230, 1550.500 390.281, 1548.280 447.613 C 1543.377 574.223, 1708.665 610.105, 1769.402 495.616 C 1776.695 481.869, 1773.191 482.662, 1756.900 498.446 C 1688.263 564.945, 1601.205 546.107, 1591.150 462.580 C 1590.090 453.780, 1589.618 454.002, 1609.450 453.990 C 1665.043 453.959, 1713.484 438.480, 1737.146 413.185 C 1773.833 373.966, 1725.687 325.290, 1658.500 333.674 M 1654.444 356.902 C 1624.291 365.061, 1600.823 391.907, 1592.750 427.476 C 1590.078 439.245, 1590.014 439.166, 1602.700 439.752 C 1654.498 442.146, 1711.200 412.460, 1711.200 382.948 C 1711.200 362.409, 1682.598 349.283, 1654.444 356.902 M 825.231 378.457 C 763.961 407.820, 753.235 490.629, 804.775 536.391 C 843.447 570.727, 902.244 572.132, 945 539.742 C 959.791 528.538, 975.279 510.946, 972.659 508.326 C 972.339 508.006, 967.898 510.445, 962.789 513.746 C 923.595 539.068, 884.819 543.648, 850.422 527.015 C 797.354 501.355, 785.573 426.082, 828.189 384.963 C 839.343 374.201, 838.407 372.142, 825.231 378.457"/><path fill="url(#ig)" fill-rule="evenodd" d="M 1483.974 143.250 C 1482.060 150.622, 1476.030 169.862, 1469.908 188.129 C 1463.813 206.317, 1462.752 212.584, 1465.586 213.671 C 1468.736 214.880, 1479.325 211.046, 1483.185 207.298 C 1486.871 203.720, 1486.871 203.720, 1490.217 207.269 C 1492.518 209.708, 1495.353 211.337, 1499.287 212.481 C 1510.274 215.675, 1511.568 213.722, 1507.361 200.297 C 1505.673 194.908, 1501.037 179.925, 1497.060 167 C 1487.308 135.309, 1486.443 133.739, 1483.974 143.250 M 1423.286 214.696 C 1422.828 215.889, 1423.633 217.150, 1425.997 218.946 C 1433.935 224.976, 1441.674 233.134, 1447.855 241.985 C 1464.710 266.126, 1487.657 282.204, 1484.400 267.591 C 1484.021 265.891, 1483.658 260, 1483.593 254.500 C 1483.353 234.106, 1471.694 220.676, 1449.244 214.935 C 1439.191 212.363, 1424.234 212.226, 1423.286 214.696 M 1530.500 213.680 C 1504.662 217.259, 1490.561 231.994, 1490.436 255.544 C 1490.402 262.168, 1490.063 268.090, 1489.683 268.704 C 1489.304 269.317, 1489.268 270.535, 1489.604 271.410 C 1491.977 277.594, 1511.924 263.172, 1522.308 247.763 C 1530.722 235.278, 1538.117 226.800, 1544.860 221.909 C 1553.825 215.407, 1553.198 213.537, 1542 213.382 C 1537.325 213.317, 1532.150 213.451, 1530.500 213.680 M 144 268.322 C 144 280.746, 156.745 293.010, 175.500 298.632 C 182.964 300.870, 562.958 302.109, 565.615 299.905 C 567.870 298.033, 567.499 286.338, 565.145 285.078 C 563.937 284.431, 497.995 284.087, 375.895 284.090 C 157.530 284.096, 175.488 285.242, 152.805 269.862 C 146.204 265.386, 144 265, 144 268.322 M 1759 274.713 C 1758.175 275.018, 1755.011 276.786, 1751.969 278.641 C 1748.927 280.496, 1744.906 282.453, 1743.035 282.990 C 1740.841 283.619, 1538.550 283.985, 1173.684 284.018 C 798.401 284.053, 607.108 284.407, 605.869 285.070 C 603.650 286.258, 603.129 297.729, 605.200 299.800 C 607.105 301.705, 1794.314 301.532, 1795.895 299.627 C 1797.597 297.576, 1796.653 296.312, 1786.138 286.567 C 1773.920 275.243, 1766.422 271.967, 1759 274.713 M 865 335.014 C 821.156 339.356, 781.845 375.164, 772.450 419.315 C 769.361 433.835, 771.193 434.715, 777.518 421.750 C 796.397 383.049, 837.460 360.445, 876.211 367.422 C 902.385 372.135, 918.033 384.668, 958 432.932 C 968.175 445.220, 983.440 463.649, 991.922 473.886 C 1032.074 522.347, 1046.702 535.987, 1071.460 548.048 C 1122.495 572.913, 1179.867 553.910, 1205.105 503.782 C 1227.541 459.217, 1208.444 400.877, 1164.114 378.558 C 1146.631 369.756, 1143.415 371.457, 1155.499 383.114 C 1188.155 414.620, 1192.977 460.586, 1167.408 496.642 C 1147.798 524.296, 1117.326 532.272, 1087.500 517.558 C 1065.215 506.564, 1048.465 488.788, 984.122 407.848 C 936.405 347.822, 908.424 330.714, 865 335.014 M 1109 335.005 C 1074.983 338.296, 1045.641 360.318, 1004.219 413.644 C 999.461 419.769, 999.859 421.150, 1009.999 433.672 C 1022.510 449.122, 1019.843 449.679, 1037.137 428.002 C 1061.783 397.107, 1078.967 381.311, 1097.430 372.576 C 1137.236 353.745, 1186.796 374.007, 1208.162 417.848 C 1214.452 430.754, 1216.396 430.591, 1213.677 417.386 C 1206.017 380.168, 1180.111 349.497, 1147.520 339.057 C 1139.868 336.606, 1122.118 333.670, 1117.789 334.140 C 1117.080 334.217, 1113.125 334.606, 1109 335.005 M 962.955 467.250 C 931.469 507.222, 896.404 527.079, 864.781 522.846 C 846.841 520.444, 859.684 528.221, 878.491 531.147 C 913.440 536.585, 950.751 522.620, 981.769 492.491 C 994.311 480.309, 994.260 481.288, 983.026 468.013 C 972.283 455.317, 972.352 455.320, 962.955 467.250"/></svg>