<svg xmlns="http://www.w3.org/2000/svg" viewBox="0 0 1694 660" width="1694" height="660"><defs><linearGradient id="ig" x1="0" y1="0" x2="0.3" y2="1"><stop offset="0" stop-color="#F4D877"/><stop offset="0.5" stop-color="#E7C365"/><stop offset="1" stop-color="#C08F2B"/></linearGradient></defs>
<path d="M 442.500 1.108 C 432.872 1.961, 417.345 5.637, 409.916 8.822 C 403.662 11.503, 400 16.056, 400 21.154 C 400 26.910, 403.679 30.288, 411.656 31.855 C 434.786 36.397, 452.027 51.650, 460.114 74.725 C 461.228 77.901, 463.065 84.775, 464.198 90 C 466.057 98.572, 466.303 103.870, 466.717 144.250 C 467.095 181.168, 466.941 189.005, 465.838 189.030 C 464.974 189.050, 465.121 189.422, 466.250 190.080 C 467.788 190.976, 467.998 192.821, 467.985 205.300 C 467.976 213.110, 467.613 220.061, 467.177 220.748 C 466.549 221.736, 424.272 222.048, 263.442 222.250 L 60.500 222.505 263.781 222.752 L 467.062 223 466.780 342.750 L 466.499 462.500 464.179 469.349 C 462.708 473.691, 460.472 477.718, 458.071 480.349 C 451.683 487.351, 450.571 491.337, 453.453 496.909 C 455.967 501.770, 459.531 502.509, 480 502.415 C 510.569 502.273, 518.567 498.277, 525.203 479.826 C 527.468 473.527, 527.480 473.191, 528.025 402 C 528.566 331.222, 528.595 330.432, 530.824 323.758 C 533.403 316.035, 540.410 306.166, 546.718 301.373 C 557.567 293.129, 573.180 291.043, 584.224 296.363 C 593.663 300.910, 599.746 309.706, 602.596 322.931 C 604.942 333.814, 605.357 358.884, 604.055 411 C 602.945 455.408, 602.980 461.195, 604.397 467.259 C 607.676 481.298, 615.392 491.556, 627.066 497.397 C 636.205 501.969, 645.397 503.406, 661 502.702 C 681.617 501.773, 689 498.628, 689 490.776 C 689 485.128, 686.809 481.758, 681.125 478.664 C 674.346 474.975, 669.412 468.936, 666.726 461.042 C 664.504 454.511, 664.501 454.398, 664.815 391.841 C 665.020 351.162, 664.748 325.754, 664.041 319.412 C 659.888 282.168, 643.023 259.292, 613.790 251.248 C 604.702 248.748, 580.109 248.829, 570.584 251.390 C 556.189 255.261, 545.526 260.747, 533.750 270.339 L 528 275.023 528 249.012 L 528 223 1107.250 222.751 L 1686.500 222.503 1107 222.001 L 527.500 221.500 527.225 205.750 L 526.949 190 540.725 189.782 L 554.500 189.563 541.330 189.253 L 528.160 188.943 527.697 133.222 C 527.207 74.381, 527.007 71.552, 522.050 53.424 C 511.747 15.750, 483.902 -2.563, 442.500 1.108 M 1406.887 93.366 C 1403.173 96.867, 1398.943 99.622, 1394.387 101.504 C 1383.804 105.876, 1383.548 106.390, 1389.500 111.341 C 1395.303 116.168, 1402.153 122.919, 1406.665 128.256 C 1411.865 134.408, 1413.179 133.843, 1427.981 119.094 C 1441.584 105.539, 1441.864 104.957, 1435.494 103.454 C 1430.606 102.301, 1422.808 97.433, 1418.042 92.559 C 1415.590 90.052, 1413.340 88.016, 1413.042 88.036 C 1412.744 88.057, 1409.974 90.455, 1406.887 93.366 M 1506.477 123.250 L 1498.500 131.500 1506.750 123.523 C 1514.412 116.115, 1515.456 115, 1514.727 115 C 1514.576 115, 1510.864 118.713, 1506.477 123.250 M 1320.500 125 C 1324.320 128.850, 1327.671 132, 1327.946 132 C 1328.221 132, 1325.320 128.850, 1321.500 125 C 1317.680 121.150, 1314.329 118, 1314.054 118 C 1313.779 118, 1316.680 121.150, 1320.500 125 M 1672 185.275 C 1672 185.426, 1675.487 188.914, 1679.750 193.025 L 1687.500 200.500 1680.025 192.750 C 1673.082 185.552, 1672 184.544, 1672 185.275 M 169.330 189.750 C 223.686 189.893, 312.336 189.893, 366.330 189.750 C 420.323 189.607, 375.850 189.490, 267.500 189.490 C 159.150 189.490, 114.973 189.607, 169.330 189.750 M 582.750 189.749 C 597.187 189.905, 620.812 189.905, 635.250 189.749 C 649.688 189.593, 637.875 189.465, 609 189.465 C 580.125 189.465, 568.313 189.593, 582.750 189.749 M 707.750 189.750 C 733.187 189.898, 774.812 189.898, 800.250 189.750 C 825.688 189.601, 804.875 189.480, 754 189.480 C 703.125 189.480, 682.313 189.601, 707.750 189.750 M 855.750 189.745 C 860.837 189.927, 869.163 189.927, 874.250 189.745 C 879.337 189.564, 875.175 189.415, 865 189.415 C 854.825 189.415, 850.663 189.564, 855.750 189.745 M 917.823 189.750 C 936.701 189.902, 967.301 189.902, 985.823 189.749 C 1004.345 189.597, 988.900 189.473, 951.500 189.473 C 914.100 189.473, 898.945 189.597, 917.823 189.750 M 1108.250 189.750 C 1157.063 189.893, 1236.938 189.893, 1285.750 189.750 C 1334.563 189.606, 1294.625 189.489, 1197 189.489 C 1099.375 189.489, 1059.438 189.606, 1108.250 189.750 M 1448.750 189.746 C 1454.388 189.924, 1463.612 189.924, 1469.250 189.746 C 1474.888 189.568, 1470.275 189.422, 1459 189.422 C 1447.725 189.422, 1443.112 189.568, 1448.750 189.746 M 1491.750 189.747 C 1498.487 189.920, 1509.513 189.920, 1516.250 189.747 C 1522.987 189.574, 1517.475 189.432, 1504 189.432 C 1490.525 189.432, 1485.013 189.574, 1491.750 189.747 M 1546.750 189.748 C 1556.237 189.913, 1571.763 189.913, 1581.250 189.748 C 1590.737 189.584, 1582.975 189.450, 1564 189.450 C 1545.025 189.450, 1537.263 189.584, 1546.750 189.748 M 97 250.125 C 80.136 252.070, 64.848 257.387, 52.252 265.689 C 19.148 287.505, 13.322 331.300, 39.963 358.068 C 50.697 368.854, 59.687 374.187, 89.742 387.600 C 131.961 406.442, 142.940 415.251, 143.830 430.998 C 144.293 439.192, 142.189 444.669, 136.003 451.381 C 127.107 461.032, 114.679 465.475, 97 465.325 C 76.293 465.149, 60.007 459.002, 47.547 446.658 C 35.706 434.927, 31.693 423.534, 33.903 407.921 C 35.414 397.242, 34.822 393.869, 30.850 390.527 C 23.539 384.376, 14.558 390.374, 6.880 406.536 C -0.797 422.694, -2.177 444.074, 3.397 460.500 C 7.680 473.123, 13.464 482.443, 23 492.088 C 37.329 506.581, 50.975 514.377, 88.500 529.509 C 125.921 544.599, 142.926 553.638, 158.749 566.852 C 177.645 582.634, 184.003 604.820, 176.194 627.737 C 174.463 632.817, 171.911 639.215, 170.523 641.954 C 165.745 651.383, 167.827 658.631, 175.613 659.675 C 181.282 660.435, 187.102 657.652, 194.860 650.470 C 206.880 639.341, 215.473 625.808, 220.557 610 C 224.459 597.869, 225.126 579.934, 222.123 567.916 C 215.602 541.821, 193.931 516.612, 165.670 502.248 L 157.840 498.269 165.670 494.005 C 176.781 487.954, 191.023 473.484, 196.733 462.443 C 203.578 449.209, 205.514 440.854, 205.411 425 C 205.334 413.216, 204.986 410.483, 202.671 403.500 C 194.258 378.122, 176.914 364.168, 129.998 345.036 C 108.292 336.184, 93.611 329.067, 88.880 325.102 C 84.388 321.338, 82 316.461, 82 311.049 C 82 294.904, 105.742 286.003, 130.443 292.886 C 141.102 295.857, 151.948 301.656, 161.560 309.525 C 165.927 313.100, 170.936 317.178, 172.692 318.587 C 176.461 321.612, 183.249 322.275, 187.449 320.028 C 188.952 319.223, 191.040 316.881, 192.091 314.822 C 193.814 311.445, 194 308.724, 194 286.941 C 194 260.121, 193.489 257.489, 187.580 253.886 C 183.817 251.591, 181.402 251.537, 174.344 253.588 C 169.221 255.078, 168.060 255.048, 155.691 253.109 C 129.784 249.049, 113.502 248.221, 97 250.125 M 331.525 250.102 C 285.729 255.715, 248.944 281.371, 231.143 320.114 C 212.229 361.281, 214.804 413.053, 237.667 451.256 C 243.236 460.560, 256.280 474.788, 265.882 482.030 C 279.551 492.339, 299.810 500.400, 318.764 503.070 C 329.705 504.611, 357.123 503.723, 367 501.507 C 401.561 493.753, 429.407 469.992, 436.534 442.174 C 439.290 431.416, 435.324 424, 426.815 424 C 421.832 424, 419.489 425.263, 408.697 433.766 C 391.369 447.418, 375.588 453.869, 357.500 454.694 C 343.593 455.328, 334.530 453.530, 323 447.851 C 316.126 444.465, 312.754 441.920, 305.370 434.542 C 297.372 426.551, 295.613 424.124, 291.171 414.960 C 284.215 400.607, 281.877 390.825, 281.261 373.500 C 280.675 357.039, 282.386 345.750, 287.232 334.102 C 304.516 292.557, 347.841 278.040, 384.253 301.595 C 388.227 304.166, 396.202 310.993, 401.976 316.767 C 407.750 322.540, 413.511 327.944, 414.779 328.775 C 418.242 331.044, 427.500 330.763, 430.820 328.288 C 436.901 323.756, 437.470 321.396, 437.824 299.209 C 438.258 272.032, 436.771 265.808, 428.487 260.132 C 425.231 257.901, 409.652 254.409, 389.500 251.394 C 377.197 249.554, 342.337 248.776, 331.525 250.102 M 1250 250.987 C 1196.128 251.373, 1177.972 251.803, 1176.358 252.727 C 1172.803 254.764, 1169.287 259.635, 1167.341 265.219 C 1165.827 269.562, 1165.500 273.579, 1165.500 287.830 L 1165.500 305.159 1168.766 308.080 C 1171.333 310.375, 1172.979 311, 1176.458 311 C 1180.353 311, 1181.580 310.389, 1186.692 305.905 C 1198.228 295.786, 1201.963 295.040, 1241.227 295.017 L 1270.954 295 1262.280 307.250 C 1257.510 313.988, 1241.393 336.600, 1226.466 357.500 C 1155.418 456.974, 1143.062 475.007, 1135.471 490.299 C 1129.912 501.496, 1129.087 506.212, 1131.902 510.699 C 1134.347 514.598, 1139.930 516.454, 1144.912 515.025 C 1146.727 514.505, 1152.027 511.307, 1156.690 507.920 C 1200.544 476.058, 1247.782 476.518, 1296.500 509.283 C 1308.480 517.340, 1314.193 521.701, 1335.500 539.053 C 1357.857 557.260, 1369.847 565.973, 1383.646 574.039 C 1417.941 594.084, 1450.030 603.194, 1491.500 604.658 C 1541.725 606.432, 1588.828 591.292, 1617.092 564.291 C 1630.054 551.908, 1633.639 545.371, 1630.983 538.959 C 1629.283 534.854, 1624.787 532.619, 1619.827 533.412 C 1617.698 533.752, 1610.453 536.221, 1603.728 538.898 C 1578.829 548.810, 1558.121 553.983, 1534.718 556.136 C 1507.110 558.676, 1475.436 552.745, 1446.118 539.545 C 1424.260 529.705, 1406.515 518.321, 1369 490.072 C 1340.224 468.403, 1327.347 459.822, 1313.521 453.103 C 1295.253 444.225, 1274.234 439.218, 1250.802 438.162 L 1236.105 437.500 1249.324 419 C 1256.595 408.825, 1276.726 380.700, 1294.060 356.500 C 1343.256 287.818, 1343.054 288.126, 1344.030 280.261 C 1345.214 270.712, 1344.156 260.534, 1341.579 256.673 C 1338.542 252.124, 1333.627 249.955, 1327 250.238 C 1323.975 250.368, 1289.325 250.705, 1250 250.987 M 1576.189 251.073 C 1565.509 252.459, 1552.054 256.819, 1539.500 262.960 C 1501.300 281.645, 1476.240 313.982, 1466.763 356.817 C 1463.647 370.902, 1463.678 399.126, 1466.826 413.734 C 1476.735 459.714, 1506.045 491.102, 1548.293 500.976 C 1570.654 506.202, 1595.480 506.221, 1617.500 501.028 C 1647.250 494.013, 1674.184 472.871, 1686.446 446.911 C 1692.952 433.136, 1694.396 422.398, 1690.230 418.766 C 1683.391 412.802, 1679.418 413.845, 1667.504 424.729 C 1636.338 453.201, 1606.864 464.318, 1578.208 458.411 C 1553.742 453.368, 1535.427 436.535, 1527.152 411.488 C 1525.519 406.545, 1523.899 400.700, 1523.553 398.500 L 1522.923 394.500 1538.711 394.384 C 1557.515 394.246, 1572.159 392.793, 1588.645 389.428 C 1644.306 378.066, 1677.045 350.908, 1676.985 316.145 C 1676.957 299.350, 1672.304 287.531, 1661.074 275.724 C 1652.433 266.639, 1641.781 260.159, 1628 255.603 C 1611.908 250.284, 1594.197 248.735, 1576.189 251.073 M 1381.388 251.959 C 1374.952 254.623, 1372.855 264.298, 1377.514 269.834 C 1384.909 278.623, 1385.194 282.852, 1384.538 374 C 1384.231 416.625, 1383.886 455.550, 1383.771 460.500 C 1383.583 468.618, 1383.835 470.023, 1386.344 474.840 C 1396.432 494.211, 1418.475 503.907, 1445.892 501.035 C 1462.829 499.260, 1465.837 497.622, 1466.732 489.687 C 1467.368 484.046, 1466.158 481.919, 1459.531 477.023 C 1452.783 472.038, 1447.585 462.215, 1445.954 451.365 C 1444.399 441.019, 1445.226 284.137, 1446.868 278 C 1447.530 275.525, 1449.016 271.192, 1450.170 268.371 C 1452.710 262.161, 1452.130 257.411, 1448.406 253.910 L 1445.842 251.500 1414.671 251.292 C 1397.527 251.178, 1382.550 251.478, 1381.388 251.959 M 1579.437 290.962 C 1560.479 295.019, 1543.974 308.954, 1533.622 329.640 C 1529.704 337.471, 1525.417 350.040, 1524.438 356.564 L 1523.773 361 1528.393 361 C 1540.668 361, 1565.447 355.677, 1579.822 349.951 C 1612.538 336.920, 1627.579 313.263, 1612.339 298.807 C 1605.468 292.288, 1590.225 288.654, 1579.437 290.962 M 752.874 302.354 C 739.776 308.073, 729.773 314.966, 720.286 324.809 C 698.451 347.466, 687.523 377.790, 690.858 406.475 C 693.865 432.345, 704.083 453.822, 721.676 471.251 C 731.709 481.191, 737.671 485.605, 748.640 491.216 C 763.052 498.588, 773.598 501.511, 791.500 503.095 C 831.464 506.631, 868.849 491.223, 892.779 461.354 C 896.626 456.552, 901.042 450.278, 902.593 447.412 C 905.037 442.893, 905.255 441.854, 904.228 439.600 C 903.477 437.953, 902.241 437, 900.855 437 C 899.651 437, 893.904 440.096, 888.083 443.880 C 869.396 456.028, 856.477 461.344, 837.636 464.636 C 826.772 466.534, 809.047 465.999, 799 463.468 C 789.628 461.108, 775.455 453.876, 768.241 447.773 C 747.715 430.408, 735.854 401.532, 737.324 372.500 C 738.496 349.325, 746.483 330.687, 762.883 312.847 C 769.029 306.162, 770.354 302.754, 767.800 300.200 C 765.766 298.166, 760.835 298.878, 752.874 302.354 M 1105.349 376 C 1105.349 380.675, 1105.522 382.587, 1105.732 380.250 C 1105.943 377.913, 1105.943 374.087, 1105.732 371.750 C 1105.522 369.413, 1105.349 371.325, 1105.349 376 M 862.978 413.750 L 854.500 422.500 863.250 414.022 C 868.063 409.359, 872 405.422, 872 405.272 C 872 404.544, 870.852 405.623, 862.978 413.750 M 984 420.275 C 984 420.426, 987.487 423.914, 991.750 428.025 L 999.500 435.500 992.025 427.750 C 985.082 420.552, 984 419.544, 984 420.275" stroke="none" fill="#4B5D3F" fill-rule="evenodd"/>
<path d="M 1409.229 2.750 C 1406.798 4.885, 1376.972 92.831, 1376.989 97.816 C 1376.995 99.639, 1377.446 101.965, 1377.992 102.984 C 1379.216 105.273, 1384.196 106.480, 1386.666 105.088 C 1387.675 104.519, 1391.532 102.722, 1395.238 101.095 C 1399.362 99.284, 1404.128 96.101, 1407.524 92.889 L 1413.073 87.641 1418.287 92.695 C 1423.567 97.815, 1431.505 102.995, 1434.088 103.006 C 1434.865 103.010, 1436.836 103.709, 1438.468 104.560 C 1444.739 107.830, 1448.630 104.032, 1447.664 95.586 C 1446.816 88.180, 1418.545 3.871, 1416.377 2.287 C 1413.962 0.521, 1411.592 0.674, 1409.229 2.750 M 1321.247 103.926 C 1314.907 104.707, 1311.575 106.614, 1310.470 110.094 C 1309.641 112.706, 1311.611 115.844, 1317.271 120.934 C 1319.985 123.374, 1327.859 131.925, 1334.769 139.935 C 1351.198 158.981, 1360.038 168.034, 1368.009 173.978 C 1374.903 179.119, 1392.111 188, 1395.177 188 C 1396.180 188, 1397 188.440, 1397 188.977 C 1397 189.612, 1249.173 189.962, 975.250 189.975 C 743.288 189.986, 547.526 189.996, 540.225 189.998 L 526.949 190 527.225 205.750 L 527.500 221.500 1106.500 221.759 C 1518.104 221.943, 1686.258 221.706, 1688.120 220.941 C 1691.071 219.729, 1693 216.253, 1693 212.149 C 1693 207.772, 1688.143 201.268, 1676.808 190.464 C 1656.718 171.315, 1644.812 168.525, 1630.167 179.534 C 1621.296 186.202, 1616.571 187.937, 1604.273 189.039 C 1591.495 190.185, 1430.228 190.177, 1429.519 189.031 C 1429.252 188.598, 1430.308 187.988, 1431.866 187.677 C 1436.634 186.723, 1446.088 182.049, 1454.534 176.468 C 1464.589 169.825, 1474.801 159.933, 1487.534 144.500 C 1492.980 137.900, 1501.387 128.406, 1506.218 123.402 C 1515.637 113.644, 1517.069 110.182, 1513.152 106.637 C 1510.180 103.948, 1495.396 102.560, 1484.531 103.950 C 1450.900 108.252, 1426.266 128.628, 1420.420 156.980 C 1418.694 165.349, 1418.061 184.272, 1419.390 187.791 C 1420.247 190.062, 1420.191 190.080, 1412.627 189.905 C 1404.785 189.723, 1403.810 189.233, 1406.632 186.890 C 1408.037 185.725, 1408.170 184.068, 1407.587 175.018 C 1406.009 150.522, 1401.491 139.337, 1387.568 125.463 C 1377.295 115.224, 1367.436 109.558, 1353.857 106.089 C 1344.934 103.810, 1330.151 102.829, 1321.247 103.926 M 18.500 169.733 C 11.896 171.386, 8.341 177.784, 9.339 186.215 C 10.767 198.276, 19.566 209.531, 32.253 215.526 C 46.833 222.416, 32.156 222, 260.458 222 C 447.680 222, 466.842 221.854, 467.393 220.418 C 468.370 217.872, 468.090 191.174, 467.079 190.549 C 466.573 190.236, 378.036 189.982, 270.329 189.985 C 155.795 189.988, 71.147 189.603, 66.422 189.058 C 56.306 187.892, 49.158 184.775, 38.939 177.075 C 29.543 169.995, 24.577 168.211, 18.500 169.733 M 786.500 251.685 C 750.054 256.362, 718.652 279.072, 701.411 313.223 C 695.943 324.053, 691.975 337.455, 691.705 346 C 691.520 351.861, 691.693 352.500, 693.462 352.500 C 694.894 352.500, 696.451 350.494, 699.225 345.073 C 706.050 331.740, 716.500 319.769, 730.009 309.813 C 756.855 290.025, 789.425 285.488, 815.500 297.905 C 838.008 308.622, 855.462 327.916, 920.975 414.500 C 940.273 440.004, 944.341 445.065, 954.328 456 C 976.911 480.726, 1002.181 495.263, 1030 499.531 C 1050.571 502.687, 1068.733 500.096, 1089.485 491.044 C 1114.610 480.085, 1137.733 451.267, 1146.161 420.408 C 1149.293 408.939, 1149.317 384.915, 1146.207 373.671 C 1138.125 344.452, 1115.657 317.258, 1089.336 304.837 C 1078.002 299.488, 1075.384 299.062, 1073.899 302.323 C 1072.810 304.712, 1073.198 305.406, 1079.678 312.692 C 1090.033 324.332, 1092.581 327.932, 1096.978 337.128 C 1113.352 371.380, 1106.140 412.488, 1079.236 438.256 C 1074.309 442.975, 1069.827 446.130, 1064.376 448.719 C 1057.490 451.990, 1055.470 452.474, 1047.240 452.834 C 1035.806 453.335, 1027.733 451.844, 1018.281 447.486 C 999.838 438.985, 984.291 423.047, 949.034 376.500 C 887.127 294.767, 870.744 276.687, 846.737 263.601 C 828.736 253.788, 805.668 249.225, 786.500 251.685 M 1030.576 252.141 C 1021.682 253.282, 1007.545 258.086, 998 263.212 C 978.665 273.594, 959.659 291.929, 933.569 325.368 C 927.296 333.408, 926.745 334.481, 927.664 336.868 C 928.221 338.315, 933.720 346.137, 939.885 354.250 C 947.565 364.358, 951.705 369, 953.039 369 C 954.300 369, 957.362 365.938, 961.742 360.296 C 1003.823 306.097, 1030.233 288.289, 1063.028 292.003 C 1075.552 293.421, 1082.802 295.370, 1092.619 299.955 C 1104.136 305.335, 1112.252 311.117, 1121.815 320.758 C 1129.766 328.774, 1140.097 342.991, 1142.915 349.796 C 1144.327 353.204, 1146.935 353.989, 1148.916 351.601 C 1151.284 348.748, 1144.648 324.257, 1137.832 310.692 C 1128.906 292.931, 1112.472 274.639, 1097.435 265.728 C 1077.460 253.892, 1054.037 249.132, 1030.576 252.141 M 877.542 398.476 C 848.484 432.915, 825.159 446.222, 793.500 446.424 C 781.807 446.498, 781.492 446.558, 781.177 448.773 C 780.908 450.675, 781.746 451.440, 786.309 453.458 C 789.309 454.785, 795.141 456.568, 799.270 457.421 C 823.496 462.425, 847.369 459.275, 870.500 448.021 C 886.973 440.007, 912.005 421.317, 911.997 417.038 C 911.992 414.416, 891.027 387, 889.027 387 C 887.958 387, 883.285 391.669, 877.542 398.476" stroke="none" fill="url(#ig)" fill-rule="evenodd"/>
</svg>
