<svg xmlns="http://www.w3.org/2000/svg" viewBox="0 0 512 512" width="512" height="512">
<defs>
<linearGradient id="bg" x1="0" y1="0" x2="1" y2="1"><stop offset="0" stop-color="#232617"/><stop offset="1" stop-color="#0a0c06"/></linearGradient>
<linearGradient id="gd" x1="0" y1="0" x2="1" y2="1"><stop offset="0" stop-color="#EBCE77"/><stop offset=".55" stop-color="#D0AE4E"/><stop offset="1" stop-color="#C08F2C"/></linearGradient>
</defs>
<rect width="512" height="512" rx="114" fill="url(#bg)"/>
<g transform="translate(256 256) scale(0.7115) translate(-998.45 -353.33)" fill="url(#gd)" fill-rule="evenodd">
<path d="M 865 335.014 C 821.156 339.356, 781.845 375.164, 772.450 419.315 C 769.361 433.835, 771.193 434.715, 777.518 421.750 C 796.397 383.049, 837.460 360.445, 876.211 367.422 C 902.385 372.135, 918.033 384.668, 958 432.932 C 968.175 445.220, 983.440 463.649, 991.922 473.886 C 1032.074 522.347, 1046.702 535.987, 1071.460 548.048 C 1122.495 572.913, 1179.867 553.910, 1205.105 503.782 C 1227.541 459.217, 1208.444 400.877, 1164.114 378.558 C 1146.631 369.756, 1143.415 371.457, 1155.499 383.114 C 1188.155 414.620, 1192.977 460.586, 1167.408 496.642 C 1147.798 524.296, 1117.326 532.272, 1087.500 517.558 C 1065.215 506.564, 1048.465 488.788, 984.122 407.848 C 936.405 347.822, 908.424 330.714, 865 335.014"/><path d="M 1109 335.005 C 1074.983 338.296, 1045.641 360.318, 1004.219 413.644 C 999.461 419.769, 999.859 421.150, 1009.999 433.672 C 1022.510 449.122, 1019.843 449.679, 1037.137 428.002 C 1061.783 397.107, 1078.967 381.311, 1097.430 372.576 C 1137.236 353.745, 1186.796 374.007, 1208.162 417.848 C 1214.452 430.754, 1216.396 430.591, 1213.677 417.386 C 1206.017 380.168, 1180.111 349.497, 1147.520 339.057 C 1139.868 336.606, 1122.118 333.670, 1117.789 334.140 C 1117.080 334.217, 1113.125 334.606, 1109 335.005"/><path d="M 962.955 467.250 C 931.469 507.222, 896.404 527.079, 864.781 522.846 C 846.841 520.444, 859.684 528.221, 878.491 531.147 C 913.440 536.585, 950.751 522.620, 981.769 492.491 C 994.311 480.309, 994.260 481.288, 983.026 468.013 C 972.283 455.317, 972.352 455.320, 962.955 467.250"/>
<g transform="translate(-489.88 0)"><path d="M 1483.974 143.250 C 1482.060 150.622, 1476.030 169.862, 1469.908 188.129 C 1463.813 206.317, 1462.752 212.584, 1465.586 213.671 C 1468.736 214.880, 1479.325 211.046, 1483.185 207.298 C 1486.871 203.720, 1486.871 203.720, 1490.217 207.269 C 1492.518 209.708, 1495.353 211.337, 1499.287 212.481 C 1510.274 215.675, 1511.568 213.722, 1507.361 200.297 C 1505.673 194.908, 1501.037 179.925, 1497.060 167 C 1487.308 135.309, 1486.443 133.739, 1483.974 143.250"/><path d="M 1423.286 214.696 C 1422.828 215.889, 1423.633 217.150, 1425.997 218.946 C 1433.935 224.976, 1441.674 233.134, 1447.855 241.985 C 1464.710 266.126, 1487.657 282.204, 1484.400 267.591 C 1484.021 265.891, 1483.658 260, 1483.593 254.500 C 1483.353 234.106, 1471.694 220.676, 1449.244 214.935 C 1439.191 212.363, 1424.234 212.226, 1423.286 214.696"/><path d="M 1530.500 213.680 C 1504.662 217.259, 1490.561 231.994, 1490.436 255.544 C 1490.402 262.168, 1490.063 268.090, 1489.683 268.704 C 1489.304 269.317, 1489.268 270.535, 1489.604 271.410 C 1491.977 277.594, 1511.924 263.172, 1522.308 247.763 C 1530.722 235.278, 1538.117 226.800, 1544.860 221.909 C 1553.825 215.407, 1553.198 213.537, 1542 213.382 C 1537.325 213.317, 1532.150 213.451, 1530.500 213.680"/></g>
</g>
</svg>